<svg width="509" height="382" viewBox="0 0 509 382" fill="none" xmlns="http://www.w3.org/2000/svg">
<g clip-path="url(#clip0)">
<path d="M338.945 382L338.837 381.99L170.056 367.425L16.578 380.67C12.5708 381.016 8.57979 379.868 5.48303 377.481C2.38627 375.093 0.437407 371.66 0.0651695 367.937C0.0218442 367.504 0.000164251 367.069 0.000126605 366.633V27.5246C-0.0153647 24.0074 1.39127 20.613 3.94154 18.0135C6.49181 15.4139 9.99977 13.7988 13.7709 13.4879L170.056 0L170.164 0.00952574L338.945 14.5754L492.422 1.33009C496.429 0.984251 500.42 2.13146 503.517 4.51935C506.614 6.90724 508.563 10.3402 508.935 14.063C508.978 14.4964 509 14.931 509 15.3668V354.475C509.015 357.992 507.609 361.387 505.059 363.986C502.508 366.586 499 368.201 495.229 368.512L338.945 382Z" fill="#3F3D56"/>
<path d="M235.276 125.453C202.604 103.348 168.228 82.3861 133.112 63.1541L131.349 62.189V127.416H238.176L235.276 125.453ZM133.683 125.247V65.9899C167.09 84.3489 199.803 104.269 230.998 125.247L133.683 125.247ZM400.623 259.503C386.494 245.855 371.998 232.519 357.137 219.493C353.04 215.899 348.918 212.333 344.77 208.796C319.458 187.194 293.314 166.65 266.336 147.163L266.021 146.936H131.349V261.341H402.526L400.623 259.503ZM133.683 259.172V149.104H265.222C291.234 167.903 316.542 187.753 341.146 208.655C345.418 212.282 349.661 215.938 353.875 219.624C368.606 232.485 382.992 245.667 397.034 259.172H133.683ZM400.623 259.503C386.494 245.855 371.998 232.519 357.137 219.493C353.04 215.899 348.918 212.333 344.77 208.796C319.458 187.194 293.314 166.65 266.336 147.163L266.021 146.936H131.349V261.341H402.526L400.623 259.503ZM133.683 259.172V149.104H265.222C291.234 167.903 316.542 187.753 341.146 208.655C345.418 212.282 349.661 215.938 353.875 219.624C368.606 232.485 382.992 245.667 397.034 259.172H133.683ZM235.276 125.453C202.604 103.348 168.228 82.3861 133.112 63.1541L131.349 62.189V127.416H238.176L235.276 125.453ZM133.683 125.247V65.9899C167.09 84.3489 199.803 104.269 230.998 125.247L133.683 125.247ZM235.276 125.453C202.604 103.348 168.228 82.3861 133.112 63.1541L131.349 62.189V127.416H238.176L235.276 125.453ZM133.683 125.247V65.9899C167.09 84.3489 199.803 104.269 230.998 125.247L133.683 125.247ZM400.623 259.503C386.494 245.855 371.998 232.519 357.137 219.493C353.04 215.899 348.918 212.333 344.77 208.796C319.458 187.194 293.314 166.65 266.336 147.163L266.021 146.936H131.349V261.341H402.526L400.623 259.503ZM133.683 259.172V149.104H265.222C291.234 167.903 316.542 187.753 341.146 208.655C345.418 212.282 349.661 215.938 353.875 219.624C368.606 232.485 382.992 245.667 397.034 259.172H133.683ZM15.8022 280.86V283.029H108.004V314.477H15.8022V316.646H110.338V280.86H15.8022ZM131.349 336.165V358.14L133.684 357.94V338.334H493.199V336.165L131.349 336.165ZM493.199 283.029V280.86H131.349V316.646H493.199V314.477H133.683V283.029L493.199 283.029ZM275.184 125.247C230.398 93.1512 183.1 64.1987 133.683 38.6302V16.671L131.349 16.8716V39.0008L133.147 40.837C182.362 66.336 229.468 95.1994 274.075 127.188L274.39 127.416H493.199V125.247L275.184 125.247ZM108.004 125.247H15.8022V127.416H110.338V18.6825L108.004 18.8831L108.004 125.247ZM493.199 146.936H300.841L303.356 148.855C327.039 166.959 350.293 186.16 373.117 206.459C376.362 209.343 379.595 212.251 382.817 215.183C398.855 229.741 414.58 244.775 429.992 260.283L431.916 261.341H493.199V259.172H432.063C416.819 243.817 401.244 228.906 385.338 214.44C382.158 211.545 378.965 208.669 375.761 205.814C353.431 185.909 330.625 167.006 307.342 149.104H493.199V146.936ZM15.8022 336.165V338.334H108.004V360.152L110.338 359.951V336.165H15.8022ZM15.8022 146.936V149.104H108.004V259.172H15.8022V261.341H110.338V146.936H15.8022ZM235.276 125.453C202.604 103.348 168.228 82.3861 133.112 63.1541L131.349 62.189V127.416H238.176L235.276 125.453ZM133.683 125.247V65.9899C167.09 84.3489 199.803 104.269 230.998 125.247L133.683 125.247ZM400.623 259.503C386.494 245.855 371.998 232.519 357.137 219.493C353.04 215.899 348.918 212.333 344.77 208.796C319.458 187.194 293.314 166.65 266.336 147.163L266.021 146.936H131.349V261.341H402.526L400.623 259.503ZM133.683 259.172V149.104H265.222C291.234 167.903 316.542 187.753 341.146 208.655C345.418 212.282 349.661 215.938 353.875 219.624C368.606 232.485 382.992 245.667 397.034 259.172H133.683ZM235.276 125.453C202.604 103.348 168.228 82.3861 133.112 63.1541L131.349 62.189V127.416H238.176L235.276 125.453ZM133.683 125.247V65.9899C167.09 84.3489 199.803 104.269 230.998 125.247L133.683 125.247ZM400.623 259.503C386.494 245.855 371.998 232.519 357.137 219.493C353.04 215.899 348.918 212.333 344.77 208.796C319.458 187.194 293.314 166.65 266.336 147.163L266.021 146.936H131.349V261.341H402.526L400.623 259.503ZM133.683 259.172V149.104H265.222C291.234 167.903 316.542 187.753 341.146 208.655C345.418 212.282 349.661 215.938 353.875 219.624C368.606 232.485 382.992 245.667 397.034 259.172H133.683Z" fill="white"/>
<path d="M260.697 142.722C260.697 170.186 207.17 231.367 207.17 231.367C207.17 231.367 153.644 170.186 153.644 142.722C153.644 129.533 159.283 116.885 169.321 107.559C179.359 98.2334 192.974 92.9942 207.17 92.9942C221.367 92.9942 234.981 98.2334 245.019 107.559C255.058 116.885 260.697 129.533 260.697 142.722Z" fill="#6C63FF"/>
<path d="M231.641 140.56C231.641 145.056 230.205 149.451 227.517 153.189C224.828 156.928 221.006 159.841 216.535 161.562C212.064 163.283 207.144 163.733 202.397 162.856C197.651 161.978 193.291 159.813 189.869 156.634C186.446 153.455 184.116 149.404 183.172 144.995C182.228 140.585 182.712 136.014 184.564 131.86C186.416 127.707 189.553 124.156 193.577 121.658C197.601 119.16 202.331 117.827 207.171 117.827C210.385 117.826 213.567 118.413 216.537 119.555C219.506 120.697 222.204 122.371 224.477 124.482C226.749 126.593 228.552 129.1 229.781 131.859C231.01 134.617 231.642 137.574 231.641 140.56Z" fill="white"/>
<path d="M207.17 267.257C215.139 267.257 221.599 261.256 221.599 253.852C221.599 246.449 215.139 240.447 207.17 240.447C199.202 240.447 192.741 246.449 192.741 253.852C192.741 261.256 199.202 267.257 207.17 267.257Z" fill="#6C63FF"/>
<path d="M345.42 85.573C357.202 85.573 366.753 76.6997 366.753 65.7539C366.753 54.8082 357.202 45.9349 345.42 45.9349C333.638 45.9349 324.086 54.8082 324.086 65.7539C324.086 76.6997 333.638 85.573 345.42 85.573Z" fill="#FF6584"/>
<path d="M412.318 126.829H307.664C307.533 126.83 307.402 126.821 307.273 126.8L356.769 47.15C357.071 46.6539 357.51 46.2413 358.04 45.9542C358.57 45.667 359.172 45.5157 359.786 45.5157C360.399 45.5157 361.002 45.667 361.532 45.9542C362.062 46.2413 362.5 46.6539 362.802 47.15L396.02 100.601L397.612 103.159L412.318 126.829Z" fill="white"/>
<path opacity="0.2" d="M412.318 126.829H376.586L394.127 103.159L395.389 101.454L396.021 100.601L397.612 103.159L412.318 126.829Z" fill="black"/>
<path d="M470.589 126.829H380.072L397.612 103.159L398.874 101.454L421.731 70.6076C423.23 68.586 426.834 68.4601 428.596 70.2263C428.715 70.3468 428.824 70.4742 428.925 70.6076L470.589 126.829Z" fill="white"/>
<path d="M477.305 239.109C483.268 239.109 488.102 234.618 488.102 229.078C488.102 223.538 483.268 219.047 477.305 219.047C471.342 219.047 466.508 223.538 466.508 229.078C466.508 234.618 471.342 239.109 477.305 239.109Z" fill="white"/>
<path d="M478.347 259.291H476.135L477.143 227.567L478.347 259.291Z" fill="#CBCBCB"/>
<path d="M477.338 233.58L479.712 230.528L477.305 234.335L477.046 233.912L477.338 233.58Z" fill="#CBCBCB"/>
<path d="M477.078 236.661L474.704 233.61L477.111 237.417L477.37 236.994L477.078 236.661Z" fill="#CBCBCB"/>
<path d="M446.605 229.483C455.412 229.483 462.551 222.851 462.551 214.669C462.551 206.487 455.412 199.854 446.605 199.854C437.798 199.854 430.658 206.487 430.658 214.669C430.658 222.851 437.798 229.483 446.605 229.483Z" fill="white"/>
<path d="M448.142 259.291H444.876L446.365 212.438L448.142 259.291Z" fill="#CBCBCB"/>
<path d="M446.653 221.317L450.159 216.811L446.605 222.433L446.221 221.808L446.653 221.317Z" fill="#CBCBCB"/>
<path d="M446.269 225.869L442.762 221.362L446.317 226.984L446.701 226.36L446.269 225.869Z" fill="#CBCBCB"/>
<path d="M76.3803 239.109C82.3434 239.109 87.1774 234.618 87.1774 229.078C87.1774 223.538 82.3434 219.047 76.3803 219.047C70.4173 219.047 65.5833 223.538 65.5833 229.078C65.5833 234.618 70.4173 239.109 76.3803 239.109Z" fill="white"/>
<path d="M77.4217 259.291H75.2102L76.2182 227.567L77.4217 259.291Z" fill="#CBCBCB"/>
<path d="M76.4128 233.58L78.7873 230.528L76.3804 234.335L76.1206 233.912L76.4128 233.58Z" fill="#CBCBCB"/>
<path d="M76.1533 236.661L73.7788 233.61L76.1858 237.417L76.4455 236.994L76.1533 236.661Z" fill="#CBCBCB"/>
<path d="M45.6798 229.483C54.4867 229.483 61.6262 222.851 61.6262 214.669C61.6262 206.487 54.4867 199.854 45.6798 199.854C36.8728 199.854 29.7334 206.487 29.7334 214.669C29.7334 222.851 36.8728 229.483 45.6798 229.483Z" fill="white"/>
<path d="M47.2167 259.291H43.9507L45.44 212.438L47.2167 259.291Z" fill="#CBCBCB"/>
<path d="M45.7281 221.317L49.2341 216.811L45.6801 222.433L45.2961 221.808L45.7281 221.317Z" fill="#CBCBCB"/>
<path d="M45.3441 225.869L41.8374 221.362L45.3921 226.984L45.7761 226.36L45.3441 225.869Z" fill="#CBCBCB"/>
</g>
<defs>
<clipPath id="clip0">
<rect width="509" height="382" fill="white"/>
</clipPath>
</defs>
</svg>
